HIERARCHY
ROOT mixamorig:Hips
{
	OFFSET -0.000008 104.274872 1.554316
	CHANNELS 6 Xposition Yposition Zposition Xrotation Yrotation Zrotation
	JOINT mixamorig:Spine
	{
		OFFSET -0.000005 10.181595 0.131519
		CHANNELS 6 Xposition Yposition Zposition Xrotation Yrotation Zrotation
		JOINT mixamorig:Spine1
		{
			OFFSET -0.000000 9.893959 -1.470707
			CHANNELS 6 Xposition Yposition Zposition Xrotation Yrotation Zrotation
			JOINT mixamorig:Spine2
			{
				OFFSET -0.000000 9.220757 -1.370641
				CHANNELS 6 Xposition Yposition Zposition Xrotation Yrotation Zrotation
				JOINT mixamorig:Neck
				{
					OFFSET 0.000001 16.740417 -2.049036
					CHANNELS 6 Xposition Yposition Zposition Xrotation Yrotation Zrotation
					JOINT mixamorig:Head
					{
						OFFSET 0.000000 9.617874 1.685006
						CHANNELS 6 Xposition Yposition Zposition Xrotation Yrotation Zrotation
						JOINT mixamorig:HeadTop_End
						{
							OFFSET 0.000002 22.037354 7.501101
							CHANNELS 6 Xposition Yposition Zposition Xrotation Yrotation Zrotation
							End Site
							{
								OFFSET 0.000168 2310.654297 -282.823242
							}
						}
					}
				}
				JOINT mixamorig:RightShoulder
				{
					OFFSET -4.569970 11.014908 -2.160885
					CHANNELS 6 Xposition Yposition Zposition Xrotation Yrotation Zrotation
					JOINT mixamorig:RightArm
					{
						OFFSET -10.592851 -0.524811 -2.232101
						CHANNELS 6 Xposition Yposition Zposition Xrotation Yrotation Zrotation
						JOINT mixamorig:RightForeArm
						{
							OFFSET -27.841511 0.000031 -0.000004
							CHANNELS 6 Xposition Yposition Zposition Xrotation Yrotation Zrotation
							JOINT mixamorig:RightHand
							{
								OFFSET -28.328831 -0.000015 0.000015
								CHANNELS 6 Xposition Yposition Zposition Xrotation Yrotation Zrotation
								JOINT mixamorig:RightHandThumb1
								{
									OFFSET -2.464806 -1.573990 2.681852
									CHANNELS 6 Xposition Yposition Zposition Xrotation Yrotation Zrotation
									JOINT mixamorig:RightHandThumb2
									{
										OFFSET -3.215179 -1.872803 1.924282
										CHANNELS 6 Xposition Yposition Zposition Xrotation Yrotation Zrotation
										JOINT mixamorig:RightHandThumb3
										{
											OFFSET -2.654831 -1.527969 1.512609
											CHANNELS 6 Xposition Yposition Zposition Xrotation Yrotation Zrotation
											JOINT mixamorig:RightHandThumb4
											{
												OFFSET -2.018814 -1.152008 1.108052
												CHANNELS 6 Xposition Yposition Zposition Xrotation Yrotation Zrotation
												End Site
												{
													OFFSET -188.809540 -114.533607 132.431396
												}
											}
										}
									}
								}
								JOINT mixamorig:RightHandIndex1
								{
									OFFSET -9.108284 -0.517868 2.259835
									CHANNELS 6 Xposition Yposition Zposition Xrotation Yrotation Zrotation
									JOINT mixamorig:RightHandIndex2
									{
										OFFSET -3.699989 0.000000 0.001215
										CHANNELS 6 Xposition Yposition Zposition Xrotation Yrotation Zrotation
										JOINT mixamorig:RightHandIndex3
										{
											OFFSET -2.850006 0.000031 -0.000522
											CHANNELS 6 Xposition Yposition Zposition Xrotation Yrotation Zrotation
											JOINT mixamorig:RightHandIndex4
											{
												OFFSET -2.772186 -0.000015 -0.000020
												CHANNELS 6 Xposition Yposition Zposition Xrotation Yrotation Zrotation
												End Site
												{
													OFFSET -277.218445 0.000000 -0.050231
												}
											}
										}
									}
								}
								JOINT mixamorig:RightHandMiddle1
								{
									OFFSET -9.532516 -0.000031 -0.000023
									CHANNELS 6 Xposition Yposition Zposition Xrotation Yrotation Zrotation
									JOINT mixamorig:RightHandMiddle2
									{
										OFFSET -3.700005 -0.000015 0.003713
										CHANNELS 6 Xposition Yposition Zposition Xrotation Yrotation Zrotation
										JOINT mixamorig:RightHandMiddle3
										{
											OFFSET -2.949974 0.000015 -0.002054
											CHANNELS 6 Xposition Yposition Zposition Xrotation Yrotation Zrotation
											JOINT mixamorig:RightHandMiddle4
											{
												OFFSET -2.946640 0.000000 -0.000156
												CHANNELS 6 Xposition Yposition Zposition Xrotation Yrotation Zrotation
												End Site
												{
													OFFSET -294.664337 0.000000 -0.113670
												}
											}
										}
									}
								}
								JOINT mixamorig:RightHandRing1
								{
									OFFSET -9.103600 -0.043076 -1.865134
									CHANNELS 6 Xposition Yposition Zposition Xrotation Yrotation Zrotation
									JOINT mixamorig:RightHandRing2
									{
										OFFSET -3.379288 0.000000 -0.001055
										CHANNELS 6 Xposition Yposition Zposition Xrotation Yrotation Zrotation
										JOINT mixamorig:RightHandRing3
										{
											OFFSET -2.889687 -0.000015 0.000379
											CHANNELS 6 Xposition Yposition Zposition Xrotation Yrotation Zrotation
											JOINT mixamorig:RightHandRing4
											{
												OFFSET -2.638809 -0.000015 0.000941
												CHANNELS 6 Xposition Yposition Zposition Xrotation Yrotation Zrotation
												End Site
												{
													OFFSET -263.880371 0.000000 0.516020
												}
											}
										}
									}
								}
								JOINT mixamorig:RightHandPinky1
								{
									OFFSET -8.076683 -0.486710 -3.806280
									CHANNELS 6 Xposition Yposition Zposition Xrotation Yrotation Zrotation
									JOINT mixamorig:RightHandPinky2
									{
										OFFSET -3.600014 -0.000015 -0.003747
										CHANNELS 6 Xposition Yposition Zposition Xrotation Yrotation Zrotation
										JOINT mixamorig:RightHandPinky3
										{
											OFFSET -2.099983 0.000000 -0.005739
											CHANNELS 6 Xposition Yposition Zposition Xrotation Yrotation Zrotation
											JOINT mixamorig:RightHandPinky4
											{
												OFFSET -2.115768 -0.000031 -0.003680
												CHANNELS 6 Xposition Yposition Zposition Xrotation Yrotation Zrotation
												End Site
												{
													OFFSET -211.577087 0.000000 -0.350686
												}
											}
										}
									}
								}
							}
						}
					}
				}
				JOINT mixamorig:LeftShoulder
				{
					OFFSET 4.570447 11.014725 -2.160855
					CHANNELS 6 Xposition Yposition Zposition Xrotation Yrotation Zrotation
					JOINT mixamorig:LeftArm
					{
						OFFSET 10.592371 -0.524597 -2.232119
						CHANNELS 6 Xposition Yposition Zposition Xrotation Yrotation Zrotation
						JOINT mixamorig:LeftForeArm
						{
							OFFSET 27.841532 -0.000031 0.000026
							CHANNELS 6 Xposition Yposition Zposition Xrotation Yrotation Zrotation
							JOINT mixamorig:LeftHand
							{
								OFFSET 28.328846 -0.000061 0.000022
								CHANNELS 6 Xposition Yposition Zposition Xrotation Yrotation Zrotation
								JOINT mixamorig:LeftHandThumb1
								{
									OFFSET 2.466141 -1.576172 2.681732
									CHANNELS 6 Xposition Yposition Zposition Xrotation Yrotation Zrotation
									JOINT mixamorig:LeftHandThumb2
									{
										OFFSET 3.217812 -1.872070 1.916482
										CHANNELS 6 Xposition Yposition Zposition Xrotation Yrotation Zrotation
										JOINT mixamorig:LeftHandThumb3
										{
											OFFSET 2.656029 -1.528778 1.514513
											CHANNELS 6 Xposition Yposition Zposition Xrotation Yrotation Zrotation
											JOINT mixamorig:LeftHandThumb4
											{
												OFFSET 2.020889 -1.154053 1.115139
												CHANNELS 6 Xposition Yposition Zposition Xrotation Yrotation Zrotation
												End Site
												{
													OFFSET 190.885437 -115.081749 130.048782
												}
											}
										}
									}
								}
								JOINT mixamorig:LeftHandIndex1
								{
									OFFSET 9.109314 -0.518021 2.259871
									CHANNELS 6 Xposition Yposition Zposition Xrotation Yrotation Zrotation
									JOINT mixamorig:LeftHandIndex2
									{
										OFFSET 3.699989 0.000000 -0.000322
										CHANNELS 6 Xposition Yposition Zposition Xrotation Yrotation Zrotation
										JOINT mixamorig:LeftHandIndex3
										{
											OFFSET 2.850006 0.000000 0.000352
											CHANNELS 6 Xposition Yposition Zposition Xrotation Yrotation Zrotation
											JOINT mixamorig:LeftHandIndex4
											{
												OFFSET 2.774864 -0.000031 -0.000027
												CHANNELS 6 Xposition Yposition Zposition Xrotation Yrotation Zrotation
												End Site
												{
													OFFSET 277.486267 0.000000 -0.009857
												}
											}
										}
									}
								}
								JOINT mixamorig:LeftHandMiddle1
								{
									OFFSET 9.533394 0.000061 0.000044
									CHANNELS 6 Xposition Yposition Zposition Xrotation Yrotation Zrotation
									JOINT mixamorig:LeftHandMiddle2
									{
										OFFSET 3.699989 -0.000015 -0.000231
										CHANNELS 6 Xposition Yposition Zposition Xrotation Yrotation Zrotation
										JOINT mixamorig:LeftHandMiddle3
										{
											OFFSET 2.949997 -0.000015 -0.000059
											CHANNELS 6 Xposition Yposition Zposition Xrotation Yrotation Zrotation
											JOINT mixamorig:LeftHandMiddle4
											{
												OFFSET 2.952896 0.000031 0.000063
												CHANNELS 6 Xposition Yposition Zposition Xrotation Yrotation Zrotation
												End Site
												{
													OFFSET 295.289337 0.000000 0.022810
												}
											}
										}
									}
								}
								JOINT mixamorig:LeftHandRing1
								{
									OFFSET 9.104523 -0.042999 -1.865074
									CHANNELS 6 Xposition Yposition Zposition Xrotation Yrotation Zrotation
									JOINT mixamorig:LeftHandRing2
									{
										OFFSET 3.150009 -0.000031 0.000043
										CHANNELS 6 Xposition Yposition Zposition Xrotation Yrotation Zrotation
										JOINT mixamorig:LeftHandRing3
										{
											OFFSET 2.949982 -0.000015 0.000040
											CHANNELS 6 Xposition Yposition Zposition Xrotation Yrotation Zrotation
											JOINT mixamorig:LeftHandRing4
											{
												OFFSET 2.644348 0.000000 0.000057
												CHANNELS 6 Xposition Yposition Zposition Xrotation Yrotation Zrotation
												End Site
												{
													OFFSET 264.434631 0.000000 0.012105
												}
											}
										}
									}
								}
								JOINT mixamorig:LeftHandPinky1
								{
									OFFSET 8.077789 -0.486847 -3.806259
									CHANNELS 6 Xposition Yposition Zposition Xrotation Yrotation Zrotation
									JOINT mixamorig:LeftHandPinky2
									{
										OFFSET 3.599953 0.000031 0.014727
										CHANNELS 6 Xposition Yposition Zposition Xrotation Yrotation Zrotation
										JOINT mixamorig:LeftHandPinky3
										{
											OFFSET 2.100021 0.000015 0.007705
											CHANNELS 6 Xposition Yposition Zposition Xrotation Yrotation Zrotation
											JOINT mixamorig:LeftHandPinky4
											{
												OFFSET 2.125504 0.000031 0.007517
												CHANNELS 6 Xposition Yposition Zposition Xrotation Yrotation Zrotation
												End Site
												{
													OFFSET 212.550781 0.000000 0.625752
												}
											}
										}
									}
								}
							}
						}
					}
				}
			}
		}
	}
	JOINT mixamorig:RightUpLeg
	{
		OFFSET -8.207787 -6.751648 -1.599560
		CHANNELS 6 Xposition Yposition Zposition Xrotation Yrotation Zrotation
		JOINT mixamorig:RightLeg
		{
			OFFSET -0.000002 -44.370117 0.345942
			CHANNELS 6 Xposition Yposition Zposition Xrotation Yrotation Zrotation
			JOINT mixamorig:RightFoot
			{
				OFFSET 0.000003 -44.423679 -3.043532
				CHANNELS 6 Xposition Yposition Zposition Xrotation Yrotation Zrotation
				JOINT mixamorig:RightToeBase
				{
					OFFSET -0.000002 -8.728671 10.710558
					CHANNELS 6 Xposition Yposition Zposition Xrotation Yrotation Zrotation
					JOINT mixamorig:RightToe_End
					{
						OFFSET -0.000001 -0.000679 9.278119
						CHANNELS 6 Xposition Yposition Zposition Xrotation Yrotation Zrotation
						End Site
						{
							OFFSET 0.000000 -0.067690 927.812134
						}
					}
				}
			}
		}
	}
	JOINT mixamorig:LeftUpLeg
	{
		OFFSET 8.207793 -6.751686 -1.599556
		CHANNELS 6 Xposition Yposition Zposition Xrotation Yrotation Zrotation
		JOINT mixamorig:LeftLeg
		{
			OFFSET -0.000004 -44.370014 0.346954
			CHANNELS 6 Xposition Yposition Zposition Xrotation Yrotation Zrotation
			JOINT mixamorig:LeftFoot
			{
				OFFSET -0.000001 -44.423672 -3.044401
				CHANNELS 6 Xposition Yposition Zposition Xrotation Yrotation Zrotation
				JOINT mixamorig:LeftToeBase
				{
					OFFSET -0.000002 -8.728669 10.710558
					CHANNELS 6 Xposition Yposition Zposition Xrotation Yrotation Zrotation
					JOINT mixamorig:LeftToe_End
					{
						OFFSET -0.000003 -0.000679 9.278133
						CHANNELS 6 Xposition Yposition Zposition Xrotation Yrotation Zrotation
						End Site
						{
							OFFSET 0.000000 -0.068021 927.813477
						}
					}
				}
			}
		}
	}
}
MOTION
Frames: 3
Frame Time: 0.033333
0.000006 104.270477 1.554256 0.000010 0.000003 -0.000113 -0.000005 10.181587 0.131522 0.000001 -0.000003 0.000084 -0.000000 9.893967 -1.470711 0.000001 0.000000 -0.000000 -0.000000 9.220802 -1.370642 0.000000 -0.000000 -0.000000 0.000001 16.740433 -2.049030 0.000000 -0.000000 -0.000000 0.000000 9.617859 1.685014 0.000000 0.000000 0.000000 0.000002 22.037384 7.501101 0.000000 -0.000000 0.000000 -4.569968 11.014880 -2.160881 0.000008 0.000001 -0.000038 -10.592854 -0.524654 -2.232059 70.490592 1.275217 -0.901105 -27.841536 0.000015 0.000542 -59.201150 118.439401 87.286553 -28.328827 0.000006 0.000022 -0.000323 -0.000045 0.000006 -2.464443 -1.573794 2.682369 -43.355199 -165.541560 2.372087 -3.215278 -1.872607 1.924679 159.172696 30.476301 -4.861687 -2.654932 -1.527900 1.513106 150.336316 24.898900 -47.751075 -2.018819 -1.151988 1.108063 -0.000006 -0.000002 0.000005 -9.108413 -0.517563 2.260125 96.777831 18.680984 -21.036747 -3.700091 0.000301 0.001497 93.602265 17.745610 -18.851559 -2.850082 0.000355 -0.000259 92.856340 14.754508 -15.499067 -2.772162 0.000002 -0.000014 -0.000000 -0.000002 0.000003 -9.532612 0.000267 0.000240 94.130812 16.800309 -18.191166 -3.700109 0.000310 0.003973 93.719683 15.344442 -16.256543 -2.950071 0.000314 -0.001824 93.681406 14.046299 -14.961084 -2.946633 0.000001 -0.000158 0.000002 0.000003 0.000000 -9.103716 -0.042764 -1.864864 92.288929 17.534892 -18.191437 -3.379361 0.000321 -0.000809 93.490243 11.055010 -11.763836 -2.889767 0.000335 0.000628 95.590717 8.495323 -9.415037 -2.638819 -0.000000 0.000946 -0.000003 0.000001 0.000001 -8.076763 -0.486382 -3.806021 86.597032 18.253037 -17.072326 -3.600044 0.000283 -0.003499 91.062179 9.283982 -9.091493 -2.100012 0.000312 -0.005484 91.502275 6.174754 -6.111638 -2.115783 -0.000040 -0.003682 -0.000002 0.000001 -0.000003 4.570446 11.014691 -2.160851 -0.000018 0.000010 -0.000021 10.592361 -0.524543 -2.232293 69.139129 11.658340 -8.047927 27.841822 0.000123 -0.000207 102.440215 -59.705306 71.079142 28.328846 -0.000027 0.000023 0.000020 -0.000091 0.000000 2.466007 -1.576181 2.681916 -36.248019 156.122852 -14.931203 3.217759 -1.871728 1.916375 154.544436 -32.374158 -8.592781 2.656113 -1.528639 1.514441 142.201041 -27.533633 40.804004 2.020887 -1.154053 1.115141 0.000005 0.000009 0.000004 9.109360 -0.517853 2.259729 86.963908 -15.479080 14.677100 3.700054 0.000144 -0.000439 86.400445 -16.120508 15.166488 2.850058 0.000190 0.000202 86.577060 -14.049450 13.240428 2.774891 -0.000031 -0.000017 -0.000002 0.000001 -0.000002 9.533464 0.000214 -0.000089 88.934356 -15.559810 15.267831 3.700050 0.000174 -0.000377 90.732800 -15.614415 15.810068 2.950080 0.000175 -0.000181 91.048204 -18.040580 18.371209 2.952848 -0.000027 0.000073 0.000001 0.000001 0.000004 9.104578 -0.042834 -1.865223 87.639223 -14.155514 13.591251 3.150057 0.000202 -0.000092 93.788217 -14.790150 15.791488 2.950037 0.000180 -0.000053 94.472486 -15.552718 16.801338 2.644322 0.000032 0.000061 -0.000003 0.000002 -0.000002 8.077843 -0.486730 -3.806398 74.803747 -16.379374 13.013921 3.600006 0.000179 0.014543 76.986020 -13.768892 11.379689 2.100054 0.000179 0.007536 80.945890 -12.527697 11.116649 2.125500 -0.000016 0.007513 -0.000002 0.000003 0.000001 -8.207786 -6.751667 -1.599560 -0.077001 -0.000003 0.000080 -0.000002 -44.370110 0.345938 0.153719 -0.000000 -0.000000 0.000000 -44.423679 -3.043532 -0.076700 0.000000 -0.000002 -0.000006 -8.728667 10.710559 -0.000009 -0.000000 -0.000000 -0.000001 -0.000679 9.278123 0.000000 -0.000000 -0.000000 8.207792 -6.751710 -1.599556 -0.074518 -0.000003 0.000081 -0.000002 -44.370014 0.346960 0.148822 0.000002 0.000000 -0.000001 -44.423664 -3.044403 -0.074314 0.000000 -0.000002 -0.000004 -8.728671 10.710558 0.000007 -0.000000 -0.000000 0.000000 -0.000680 9.278137 -0.000000 0.000000 -0.000001 
0.000006 104.270477 1.554256 0.000010 0.000003 -0.000113 -0.000005 10.181587 0.131522 0.000001 -0.000003 0.000084 -0.000000 9.893967 -1.470711 0.000001 0.000000 -0.000000 -0.000000 9.220802 -1.370642 0.000000 -0.000000 -0.000000 0.000001 16.740433 -2.049030 0.000000 -0.000000 -0.000000 0.000000 9.617859 1.685014 0.000000 0.000000 0.000000 0.000002 22.037384 7.501101 0.000000 -0.000000 0.000000 -4.569968 11.014880 -2.160881 0.000008 0.000001 -0.000038 -10.592866 -0.524673 -2.232033 70.591248 6.536132 -4.629606 -27.841543 0.000001 0.000530 -58.991681 118.981690 87.660355 -28.328829 0.000022 0.000025 -0.000321 -0.000044 0.000007 -2.464438 -1.573725 2.682316 -51.196404 -172.960061 -19.768543 -3.215286 -1.872614 1.924671 155.582489 29.721117 -7.997661 -2.654959 -1.527888 1.513088 146.139766 26.996512 -38.237725 -2.018845 -1.152018 1.108065 -0.000000 -0.000000 0.000000 -9.108378 -0.517551 2.260119 95.993705 16.513994 -18.360995 -3.700072 0.000310 0.001491 92.908242 14.624162 -15.351975 -2.850080 0.000361 -0.000263 93.034287 11.357976 -11.970633 -2.772183 -0.000004 -0.000020 -0.000006 0.000002 -0.000001 -9.532582 0.000267 0.000230 92.514366 15.989678 -16.845777 -3.700087 0.000321 0.003954 92.171736 12.499226 -12.879483 -2.950073 0.000347 -0.001805 95.044855 11.085085 -12.091807 -2.946614 -0.000012 -0.000160 0.000002 -0.000001 -0.000001 -9.103685 -0.042747 -1.864873 91.215599 16.138728 -16.434965 -3.379312 0.000330 -0.000819 92.040050 8.541362 -8.867539 -2.889751 0.000355 0.000607 97.401079 5.934489 -6.804538 -2.638816 -0.000001 0.000948 -0.000001 -0.000001 -0.000000 -8.076741 -0.486374 -3.806025 86.669288 16.001132 -14.966758 -3.600036 0.000287 -0.003525 89.169670 6.423245 -5.990497 -2.099986 0.000329 -0.005476 92.095177 3.381872 -3.287759 -2.115767 -0.000056 -0.003689 -0.000002 0.000002 -0.000004 4.570446 11.014691 -2.160851 -0.000018 0.000010 -0.000021 10.592359 -0.524564 -2.232254 69.209405 20.462460 -14.197445 27.841837 0.000139 -0.000208 101.797495 -61.964897 72.915090 28.328842 -0.000028 0.000021 0.000021 -0.000090 -0.000001 2.466181 -1.576128 2.681863 -8.900384 159.032704 -68.582230 3.217811 -1.871740 1.916377 164.565458 -29.194749 11.517786 2.656096 -1.528677 1.514482 141.696468 -26.844030 54.882465 2.020883 -1.154078 1.115157 0.000001 -0.000000 0.000003 9.109386 -0.517844 2.259727 90.465268 -17.509274 17.637160 3.700030 0.000186 -0.000490 87.914821 -11.279979 10.895215 2.850057 0.000198 0.000206 87.037449 -8.574783 8.142800 2.774873 -0.000019 -0.000024 0.000000 -0.000001 -0.000000 9.533459 0.000227 -0.000088 90.529916 -16.628259 16.771591 3.700041 0.000194 -0.000371 92.642951 -9.892421 10.354397 2.950055 0.000223 -0.000199 94.181444 -10.340084 11.121977 2.952876 -0.000044 0.000070 -0.000000 -0.000003 0.000002 9.104592 -0.042827 -1.865242 89.965817 -15.889443 15.882036 3.150050 0.000211 -0.000107 94.673942 -11.687774 12.676512 2.950025 0.000214 -0.000107 96.433945 -10.737352 12.009338 2.644318 0.000032 0.000058 -0.000001 -0.000002 -0.000000 8.077849 -0.486715 -3.806421 79.740382 -17.886295 15.477045 3.600027 0.000182 0.014573 80.639392 -16.010324 14.059414 2.100027 0.000187 0.007539 82.472799 -12.073018 11.015997 2.125514 -0.000015 0.007515 -0.000001 -0.000002 -0.000001 -8.207786 -6.751667 -1.599560 -0.077001 -0.000003 0.000080 -0.000002 -44.370110 0.345938 0.153719 -0.000000 -0.000000 0.000000 -44.423679 -3.043532 -0.076700 0.000000 -0.000002 -0.000006 -8.728667 10.710559 -0.000009 -0.000000 -0.000000 -0.000001 -0.000679 9.278123 0.000000 -0.000000 -0.000000 8.207792 -6.751710 -1.599556 -0.074518 -0.000003 0.000081 -0.000002 -44.370014 0.346960 0.148822 0.000002 0.000000 -0.000001 -44.423664 -3.044403 -0.074314 0.000000 -0.000002 -0.000004 -8.728671 10.710558 0.000007 -0.000000 -0.000000 0.000000 -0.000680 9.278137 -0.000000 0.000000 -0.000001 
0.000006 104.270477 1.554256 0.000010 0.000003 -0.000113 -0.000005 10.181587 0.131522 0.000001 -0.000003 0.000084 -0.000000 9.893967 -1.470711 0.000001 0.000000 -0.000000 -0.000000 9.220802 -1.370642 0.000000 -0.000000 -0.000000 0.000001 16.740433 -2.049030 0.000000 -0.000000 -0.000000 0.000000 9.617859 1.685014 0.000000 0.000000 0.000000 0.000002 22.037384 7.501101 0.000000 -0.000000 0.000000 -4.569968 11.014880 -2.160881 0.000008 0.000001 -0.000038 -10.592871 -0.524684 -2.232019 70.247539 8.399236 -5.913651 -27.841530 0.000016 0.000544 -56.850779 116.660683 82.529381 -28.328827 0.000005 0.000023 -0.000318 -0.000043 0.000006 -2.464458 -1.573688 2.682307 -53.140050 -176.975857 -27.412351 -3.215283 -1.872626 1.924688 154.903213 28.320529 -16.278672 -2.654944 -1.527879 1.513085 142.989191 27.515518 -40.345060 -2.018838 -1.152004 1.108058 -0.000005 -0.000002 0.000004 -9.108368 -0.517559 2.260106 93.645937 16.455867 -17.571234 -3.700076 0.000311 0.001490 91.764070 14.524771 -14.949336 -2.850094 0.000351 -0.000270 91.910263 11.351214 -11.732516 -2.772166 -0.000014 -0.000023 0.000003 -0.000002 0.000001 -9.532580 0.000268 0.000221 90.576170 15.694999 -15.994891 -3.700078 0.000323 0.003971 91.470611 12.410850 -12.633536 -2.950051 0.000337 -0.001814 94.426307 11.419081 -12.322709 -2.946628 0.000001 -0.000151 0.000000 -0.000002 0.000001 -9.103674 -0.042750 -1.864884 89.312209 15.624360 -15.396662 -3.379311 0.000327 -0.000797 91.595965 8.903997 -9.172142 -2.889760 0.000352 0.000650 97.652376 6.718110 -7.730313 -2.638825 -0.000028 0.000945 -0.000001 0.000001 0.000000 -8.076736 -0.486378 -3.806042 85.019620 15.852258 -14.408726 -3.600041 0.000295 -0.003515 88.876757 6.807054 -6.334588 -2.100002 0.000335 -0.005497 92.727113 3.804897 -3.766396 -2.115756 -0.000041 -0.003687 -0.000005 -0.000002 -0.000005 4.570446 11.014691 -2.160851 -0.000018 0.000010 -0.000021 10.592354 -0.524567 -2.232257 68.249709 19.754999 -13.459573 27.841822 0.000127 -0.000193 102.682352 -63.053042 74.963874 28.328823 -0.000027 0.000014 0.000021 -0.000090 0.000001 2.466193 -1.576126 2.681888 -8.151389 159.599323 -70.321346 3.217858 -1.871819 1.916405 162.086632 -23.904074 34.243772 2.656101 -1.528666 1.514485 140.835728 -27.333401 51.185520 2.020884 -1.154081 1.115149 0.000005 0.000005 0.000002 9.109378 -0.517825 2.259760 91.749310 -17.686701 18.213119 3.700033 0.000187 -0.000463 89.037226 -11.522031 11.347641 2.850045 0.000209 0.000208 87.147217 -8.923100 8.489952 2.774889 -0.000034 -0.000038 -0.000000 -0.000004 -0.000001 9.533476 0.000228 -0.000063 91.071557 -17.074537 17.382907 3.700056 0.000196 -0.000374 92.450135 -10.267497 10.710937 2.950037 0.000205 -0.000205 93.255810 -9.901548 10.480696 2.952852 -0.000045 0.000070 -0.000000 0.000001 0.000002 9.104593 -0.042816 -1.865225 90.524131 -16.525539 16.677259 3.150044 0.000199 -0.000080 94.576318 -12.504984 13.538582 2.950037 0.000213 -0.000091 95.719063 -10.520626 11.621591 2.644315 0.000034 0.000058 -0.000001 0.000000 0.000001 8.077847 -0.486700 -3.806395 80.898632 -18.371214 16.211937 3.600023 0.000169 0.014562 80.288307 -16.945351 14.770882 2.100040 0.000182 0.007556 80.822680 -12.319276 10.913606 2.125497 -0.000016 0.007517 0.000000 0.000002 -0.000000 -8.207786 -6.751667 -1.599560 -0.077001 -0.000003 0.000080 -0.000002 -44.370110 0.345938 0.153719 -0.000000 -0.000000 0.000000 -44.423679 -3.043532 -0.076700 0.000000 -0.000002 -0.000006 -8.728667 10.710559 -0.000009 -0.000000 -0.000000 -0.000001 -0.000679 9.278123 0.000000 -0.000000 -0.000000 8.207792 -6.751710 -1.599556 -0.074518 -0.000003 0.000081 -0.000002 -44.370014 0.346960 0.148822 0.000002 0.000000 -0.000001 -44.423664 -3.044403 -0.074314 0.000000 -0.000002 -0.000004 -8.728671 10.710558 0.000007 -0.000000 -0.000000 0.000000 -0.000680 9.278137 -0.000000 0.000000 -0.000001 
